<svg width="24" height="24" viewBox="0 0 24 24" fill="none" xmlns="http://www.w3.org/2000/svg">
<path fill-rule="evenodd" clip-rule="evenodd" d="M5.69133 19.103C5.30081 18.6955 5.30081 18.0348 5.69133 17.6273L16.8913 5.9404C17.2818 5.53289 17.915 5.53289 18.3055 5.9404C18.6961 6.3479 18.6961 7.0086 18.3055 7.4161L7.10554 19.103C6.71502 19.5106 6.08185 19.5106 5.69133 19.103Z" fill="#151515"/>
<path fill-rule="evenodd" clip-rule="evenodd" d="M5.69133 5.9404C6.08185 5.53289 6.71502 5.53289 7.10554 5.9404L18.3055 17.6273C18.6961 18.0348 18.6961 18.6955 18.3055 19.103C17.915 19.5106 17.2818 19.5106 16.8913 19.103L5.69133 7.4161C5.30081 7.0086 5.30081 6.3479 5.69133 5.9404Z" fill="#151515"/>
</svg>
