<svg width="22" height="22" viewBox="0 0 22 22" fill="none" xmlns="http://www.w3.org/2000/svg">
<path d="M21 15.6667V5.66667C21 4.74444 20.2122 4 19.2363 4H2.76367C1.78777 4 1 4.74444 1 5.66667V15.6667C1 16.5889 1.78777 17.3333 2.76367 17.3333H19.2363C20.2122 17.3333 21 16.5889 21 15.6667ZM19.4597 5.54444C19.8477 5.91111 19.6361 6.28889 19.4245 6.47778L14.6508 10.6111L19.2363 15.1222C19.3774 15.2778 19.4715 15.5222 19.3069 15.6889C19.154 15.8667 18.8013 15.8556 18.6484 15.7444L13.5103 11.6L10.9941 13.7667L8.48971 11.6L3.35156 15.7444C3.19871 15.8556 2.84597 15.8667 2.69312 15.6889C2.52851 15.5222 2.62258 15.2778 2.76367 15.1222L7.34921 10.6111L2.57554 6.47778C2.3639 6.28889 2.15226 5.91111 2.54027 5.54444C2.92828 5.17778 3.32804 5.35556 3.65726 5.62222L10.9941 11.2222L18.3427 5.62222C18.672 5.35556 19.0717 5.17778 19.4597 5.54444Z" fill="#151515"/>
</svg>
