<svg width="22" height="22" viewBox="0 0 22 22" fill="none" xmlns="http://www.w3.org/2000/svg">
<path fill-rule="evenodd" clip-rule="evenodd" d="M10.9997 19.4853L11.6951 20.151C11.6038 20.2389 11.4954 20.3087 11.376 20.3563C11.2566 20.4039 11.1285 20.4284 10.9992 20.4284C10.8699 20.4284 10.7419 20.4039 10.6225 20.3563C10.5031 20.3087 10.3946 20.2389 10.3034 20.151L10.2975 20.1444L10.2808 20.1283L10.2199 20.0689C9.87368 19.7266 9.53316 19.3789 9.19847 19.0262C8.35815 18.1422 7.55351 17.2276 6.78633 16.2844C5.91026 15.2001 5.01454 13.9744 4.33392 12.7638C3.66802 11.5767 3.14258 10.2907 3.14258 9.11404C3.14258 4.83447 6.67044 1.57129 10.9997 1.57129C15.329 1.57129 18.8569 4.83447 18.8569 9.11404C18.8569 10.2907 18.3314 11.5767 17.6655 12.7628C16.9849 13.9753 16.0902 15.2001 15.2131 16.2844C14.14 17.604 12.9938 18.8673 11.7795 20.0689L11.7186 20.1283L11.702 20.1444L11.6961 20.15L10.9997 19.4853ZM10.9997 11.9426C11.7812 11.9426 12.5306 11.6446 13.0832 11.1141C13.6357 10.5837 13.9461 9.86421 13.9461 9.11404C13.9461 8.36386 13.6357 7.64442 13.0832 7.11396C12.5306 6.58351 11.7812 6.28551 10.9997 6.28551C10.2183 6.28551 9.46884 6.58351 8.91628 7.11396C8.36372 7.64442 8.05329 8.36386 8.05329 9.11404C8.05329 9.86421 8.36372 10.5837 8.91628 11.1141C9.46884 11.6446 10.2183 11.9426 10.9997 11.9426Z" fill="#151515"/>
</svg>
