<svg width="22" height="22" viewBox="0 0 22 22" fill="none" xmlns="http://www.w3.org/2000/svg">
<path fill-rule="evenodd" clip-rule="evenodd" d="M15.4442 20.4258C14.0841 20.3757 10.2298 19.8431 6.19323 15.8083C2.15758 11.7726 1.62586 7.91997 1.57486 6.55929C1.4993 4.4857 3.08787 2.47159 4.92294 1.68502C5.14392 1.58962 5.38592 1.5533 5.62517 1.57962C5.86443 1.60594 6.09273 1.694 6.28768 1.83516C7.7988 2.93616 8.84148 4.60184 9.73682 5.91153C9.93382 6.19927 10.0181 6.54942 9.97346 6.89526C9.92887 7.24109 9.75859 7.55844 9.49504 7.78683L7.65241 9.15506C7.56339 9.21933 7.50073 9.31372 7.47606 9.4207C7.4514 9.52768 7.46641 9.63998 7.5183 9.73673C7.93575 10.495 8.67809 11.6243 9.5281 12.4741C10.3791 13.324 11.5615 14.1153 12.3728 14.5798C12.4745 14.6369 12.5942 14.6529 12.7074 14.6244C12.8205 14.596 12.9184 14.5253 12.981 14.4269L14.1805 12.6016C14.401 12.3087 14.7263 12.1125 15.0883 12.0541C15.4502 11.9957 15.8208 12.0795 16.1223 12.2881C17.4511 13.2078 19.0019 14.2323 20.1371 15.6856C20.2898 15.8819 20.3869 16.1156 20.4183 16.3623C20.4497 16.6089 20.4142 16.8595 20.3156 17.0878C19.5251 18.9319 17.5248 20.5022 15.4442 20.4258Z" fill="#151515"/>
</svg>
