<svg width="40" height="40" viewBox="0 0 40 40" fill="none" xmlns="http://www.w3.org/2000/svg">
<path d="M5 16.6666C5 10.3813 5 7.23856 6.95262 5.28593C8.90524 3.33331 12.0479 3.33331 18.3333 3.33331H21.6667C27.9521 3.33331 31.0948 3.33331 33.0474 5.28593C35 7.23856 35 10.3813 35 16.6666V23.3333C35 29.6187 35 32.7614 33.0474 34.714C31.0948 36.6666 27.9521 36.6666 21.6667 36.6666H18.3333C12.0479 36.6666 8.90524 36.6666 6.95262 34.714C5 32.7614 5 29.6187 5 23.3333V16.6666Z" stroke="#F5F5F5" stroke-width="1.5"/>
<path d="M13.333 20H26.6663" stroke="#F5F5F5" stroke-width="1.5" stroke-linecap="round"/>
<path d="M13.333 13.3333H26.6663" stroke="#F5F5F5" stroke-width="1.5" stroke-linecap="round"/>
<path d="M13.333 26.6667H21.6663" stroke="#F5F5F5" stroke-width="1.5" stroke-linecap="round"/>
</svg>
