<svg width="41" height="40" viewBox="0 0 41 40" fill="none" xmlns="http://www.w3.org/2000/svg">
<g id="Component icons">
<path id="Vector" d="M5.33301 17.3611C5.33301 12.0318 5.33301 9.36711 5.9622 8.47066C6.59139 7.57421 9.09688 6.71657 14.1079 5.0013L15.0625 4.67451C17.6746 3.78038 18.9807 3.33331 20.333 3.33331C21.6853 3.33331 22.9914 3.78038 25.6035 4.67451L26.5582 5.0013C31.5691 6.71657 34.0746 7.57421 34.7038 8.47066C35.333 9.36711 35.333 12.0318 35.333 17.3611C35.333 18.1661 35.333 19.039 35.333 19.9856C35.333 29.3824 28.2681 33.9425 23.8354 35.8788C22.633 36.404 22.0318 36.6666 20.333 36.6666C18.6342 36.6666 18.033 36.404 16.8306 35.8788C12.3979 33.9425 5.33301 29.3824 5.33301 19.9856C5.33301 19.039 5.33301 18.1661 5.33301 17.3611Z" stroke="#F5F5F5" stroke-width="1.5"/>
</g>
</svg>
