<svg width="35" height="36" viewBox="0 0 35 36" fill="none" xmlns="http://www.w3.org/2000/svg">
<g id="Group">
<path id="Vector" d="M3.35156 11.2C3.35156 6.3924 3.35156 3.9869 4.83198 2.4943C6.31072 1 8.69388 1 13.4568 1H23.5621C28.325 1 30.7082 1 32.1869 2.4943C33.6674 3.9869 33.6674 6.3924 33.6674 11.2V24.8C33.6674 29.6076 33.6674 32.0131 32.1869 33.5057C30.7082 35 28.325 35 23.5621 35H13.4568C8.69388 35 6.31072 35 4.83198 33.5057C3.35156 32.0131 3.35156 29.6076 3.35156 24.8V11.2Z" stroke="#F5F5F5" stroke-width="1.5"/>
<path id="Vector_2" d="M11.7723 1.84991V34.9999M1.66699 17.9999H5.03541M1.66699 24.7999H5.03541M1.66699 11.1999H5.03541M17.667 8.64991H26.088M17.667 14.5999H26.088" stroke="#F5F5F5" stroke-width="1.5" stroke-linecap="round"/>
</g>
</svg>
