<svg width="41" height="40" viewBox="0 0 41 40" fill="none" xmlns="http://www.w3.org/2000/svg">
<g id="Component icons">
<path id="Vector" d="M33.4118 25.8929H7.92157M33.4118 25.8929V13.3334C33.4118 10.1907 33.4118 8.61931 32.4355 7.643C31.4591 6.66669 29.8878 6.66669 26.7451 6.66669H14.5882C11.4455 6.66669 9.87419 6.66669 8.89788 7.643C7.92157 8.61931 7.92157 10.1907 7.92157 13.3334V25.8929M33.4118 25.8929L36.3185 28.8931C36.3927 28.9696 36.4299 29.008 36.4646 29.0461C36.9996 29.6337 37.3072 30.3931 37.3317 31.1874C37.3333 31.2389 37.3333 31.2922 37.3333 31.3989C37.3333 31.6476 37.3333 31.7719 37.3267 31.8769C37.2208 33.5523 35.8856 34.8875 34.2102 34.9934C34.1052 35 33.9809 35 33.7322 35H7.60114C7.35247 35 7.22813 35 7.12314 34.9934C5.44775 34.8875 4.11249 33.5523 4.00663 31.8769C4 31.7719 4 31.6476 4 31.3989C4 31.2922 4 31.2389 4.00159 31.1874C4.02616 30.3931 4.3337 29.6337 4.86878 29.0461C4.90346 29.008 4.94064 28.9696 5.0148 28.8931L7.92157 25.8929" stroke="#F5F5F5" stroke-width="1.5" stroke-linecap="round"/>
<path id="Vector_2" d="M16.5 30.8333H24.8333" stroke="#F5F5F5" stroke-width="1.5" stroke-linecap="round"/>
<path id="Vector_3" d="M21.917 11.25C21.917 11.9404 21.3573 12.5 20.667 12.5C19.9766 12.5 19.417 11.9404 19.417 11.25C19.417 10.5596 19.9766 10 20.667 10C21.3573 10 21.917 10.5596 21.917 11.25Z" fill="#F5F5F5"/>
</g>
</svg>
